<?xml version="1.0" standalone="no"?>
<!DOCTYPE svg PUBLIC "-//W3C//DTD SVG 20010904//EN"
 "http://www.w3.org/TR/2001/REC-SVG-20010904/DTD/svg10.dtd">
<svg version="1.0" xmlns="http://www.w3.org/2000/svg"
 width="700.000000pt" height="700.000000pt" viewBox="0 0 700.000000 700.000000"
 preserveAspectRatio="xMidYMid meet">
<metadata>
Created by potrace 1.11, written by Peter Selinger 2001-2013
</metadata>
<g transform="translate(0.000000,700.000000) scale(0.100000,-0.100000)"
fill="#000000" stroke="none">
<path d="M1110 6905 c0 -3 4 -13 10 -23 5 -9 57 -125 116 -257 58 -132 112
-253 119 -270 133 -293 387 -874 389 -885 1 -13 -87 -15 -734 -17 -404 -1
-744 -2 -756 -2 -23 -1 -139 356 1120 -3431 l646 -1945 1025 -3 1025 -3 2 622
3 623 26 7 c15 3 49 9 75 13 27 3 58 8 69 10 134 29 148 32 275 72 375 116
611 338 760 714 l34 85 1 1633 1 1632 -55 0 c-31 1 -258 1 -506 1 l-450 1 1
431 0 432 630 5 629 5 0 275 0 275 -2228 2 c-1225 2 -2227 1 -2227 -2z m3651
-1927 c0 -7 2 -350 3 -763 l1 -750 -25 -76 c-114 -336 -424 -537 -872 -566
l-98 -6 0 1087 0 1086 495 0 c389 0 495 -3 496 -12z"/>
</g>
</svg>
